<?xml version="1.0" encoding="UTF-8"?>
<svg version="1.1" xmlns="http://www.w3.org/2000/svg" width="512" height="512">
<path d="M0 0 C1.97 -0.01 1.97 -0.01 3.97 -0.02 C5.41 -0.02 6.84 -0.03 8.28 -0.03 C9.8 -0.04 11.33 -0.04 12.85 -0.05 C17.85 -0.07 22.84 -0.08 27.84 -0.09 C29.57 -0.1 31.3 -0.1 33.02 -0.1 C41.16 -0.12 49.29 -0.14 57.43 -0.15 C66.77 -0.15 76.1 -0.18 85.44 -0.22 C92.69 -0.25 99.94 -0.27 107.19 -0.27 C111.5 -0.27 115.82 -0.28 120.13 -0.31 C162.16 -0.54 162.16 -0.54 181.61 7.83 C182.43 8.18 183.25 8.52 184.09 8.87 C197.46 14.63 208.59 22.36 219.29 32.15 C220.09 32.86 220.89 33.58 221.72 34.32 C233.05 45.01 241 58.02 247.29 72.15 C248.02 73.73 248.02 73.73 248.76 75.34 C250.12 78.57 251.25 81.8 252.29 85.15 C252.59 86.08 252.59 86.08 252.89 87.03 C258.36 105.37 256.66 125.23 256.29 144.15 C257.38 144.12 257.38 144.12 258.49 144.09 C273.01 143.87 285.95 149.48 296.48 159.52 C307.05 170.12 312.47 184.48 313.32 199.26 C313.22 215.2 307.51 229.68 296.29 241.15 C289.21 247.13 281.56 252.51 272.29 254.15 C272.3 254.72 272.3 255.3 272.31 255.89 C272.39 269.9 272.46 283.92 272.5 297.93 C272.52 304.71 272.55 311.49 272.6 318.26 C272.64 324.81 272.66 331.35 272.67 337.89 C272.68 340.39 272.7 342.88 272.72 345.37 C272.75 348.87 272.75 352.37 272.75 355.87 C272.76 356.89 272.78 357.92 272.79 358.98 C272.75 366.39 271.26 371.76 266.33 377.39 C260.11 382.54 256.5 384.23 248.29 384.15 C248.3 384.79 248.31 385.43 248.32 386.09 C248.41 392.78 248.47 399.46 248.51 406.14 C248.53 408.64 248.56 411.13 248.6 413.63 C248.64 417.21 248.67 420.8 248.69 424.38 C248.71 425.5 248.73 426.62 248.75 427.77 C248.75 428.81 248.75 429.85 248.75 430.92 C248.76 431.83 248.77 432.75 248.78 433.69 C248.14 436.95 246.87 438.13 244.29 440.15 C240.97 440.66 240.97 440.66 237.04 440.68 C236.35 440.68 235.65 440.69 234.94 440.69 C233.47 440.69 232.01 440.69 230.54 440.67 C228.3 440.65 226.07 440.67 223.83 440.69 C222.4 440.69 220.97 440.69 219.54 440.68 C218.25 440.67 216.96 440.67 215.62 440.66 C212.29 440.15 212.29 440.15 210.06 438.79 C207.3 434.65 206.18 430.15 204.84 425.4 C204.38 423.82 204.38 423.82 203.92 422.21 C203.28 420 202.64 417.78 202.01 415.56 C201.05 412.16 200.06 408.76 199.08 405.37 C198.45 403.21 197.83 401.05 197.22 398.9 C196.92 397.88 196.63 396.86 196.33 395.82 C196.06 394.87 195.79 393.92 195.52 392.94 C195.28 392.11 195.04 391.28 194.8 390.42 C194.29 388.15 194.29 388.15 194.29 384.15 C113.77 384.15 33.25 384.15 -49.71 384.15 C-50.04 386.46 -50.37 388.77 -50.71 391.15 C-51.08 392.78 -51.5 394.4 -51.95 396.01 C-52.2 396.9 -52.44 397.78 -52.7 398.7 C-52.96 399.63 -53.23 400.57 -53.51 401.53 C-53.78 402.51 -54.06 403.49 -54.35 404.5 C-54.93 406.56 -55.52 408.62 -56.12 410.68 C-57.02 413.83 -57.9 416.99 -58.78 420.14 C-59.36 422.15 -59.93 424.15 -60.51 426.16 C-60.9 427.57 -60.9 427.57 -61.3 429.01 C-63.85 437.73 -63.85 437.73 -67.71 440.15 C-71.03 440.66 -71.03 440.66 -74.96 440.68 C-75.65 440.68 -76.35 440.69 -77.06 440.69 C-78.53 440.69 -79.99 440.69 -81.46 440.67 C-83.7 440.65 -85.93 440.67 -88.17 440.69 C-89.6 440.69 -91.03 440.69 -92.46 440.68 C-93.75 440.67 -95.04 440.67 -96.38 440.66 C-100.33 440.05 -101.26 439.23 -103.71 436.15 C-104.19 433.69 -104.19 433.69 -104.16 430.92 C-104.16 429.88 -104.16 428.84 -104.16 427.77 C-104.14 426.65 -104.12 425.53 -104.1 424.38 C-104.09 423.23 -104.08 422.08 -104.08 420.9 C-104.06 417.23 -104.01 413.57 -103.96 409.9 C-103.94 407.41 -103.92 404.92 -103.9 402.44 C-103.86 396.34 -103.79 390.24 -103.71 384.15 C-104.82 384.16 -105.93 384.17 -107.07 384.18 C-112.78 384.13 -116.55 382.17 -120.7 378.28 C-125.19 373.34 -127.96 369.11 -127.95 362.26 C-127.95 361.3 -127.95 360.34 -127.95 359.35 C-127.95 358.32 -127.94 357.28 -127.93 356.21 C-127.93 355.1 -127.93 354 -127.93 352.86 C-127.93 349.22 -127.92 345.58 -127.9 341.94 C-127.9 339.41 -127.89 336.89 -127.89 334.36 C-127.89 328.39 -127.87 322.43 -127.85 316.46 C-127.83 309.66 -127.82 302.87 -127.81 296.07 C-127.79 282.1 -127.75 268.12 -127.71 254.15 C-128.39 253.95 -129.07 253.76 -129.77 253.56 C-130.66 253.3 -131.56 253.04 -132.48 252.77 C-133.37 252.52 -134.26 252.26 -135.17 252 C-147.11 248 -156.28 237.52 -162.35 226.91 C-169.32 212.68 -170.51 197 -165.67 181.91 C-159.34 165.85 -149.09 155 -133.54 147.74 C-126.11 144.56 -119.72 143.89 -111.71 144.15 C-111.73 143.03 -111.75 141.92 -111.77 140.78 C-111.84 136.55 -111.89 132.33 -111.93 128.1 C-111.95 126.29 -111.97 124.48 -112.01 122.67 C-112.32 106.11 -110.57 90.27 -104.02 74.9 C-103.68 74.07 -103.33 73.25 -102.98 72.4 C-97.24 59 -89.51 47.87 -79.71 37.15 C-78.99 36.35 -78.27 35.55 -77.53 34.73 C-58.3 14.33 -28.11 0.11 0 0 Z M-21.96 20.77 C-22.78 21.03 -23.6 21.29 -24.45 21.56 C-37.38 25.81 -48.17 32.61 -58.71 41.15 C-59.41 41.69 -60.11 42.22 -60.84 42.78 C-80.51 58.63 -91.92 84.68 -95.1 109.22 C-96.22 121.47 -95.8 133.86 -95.71 146.15 C-94.97 146.47 -94.23 146.8 -93.47 147.13 C-92.49 147.57 -91.52 148.01 -90.51 148.46 C-89.55 148.88 -88.58 149.31 -87.59 149.75 C-83.34 151.81 -79.5 154.35 -75.71 157.15 C-74.89 157.74 -74.07 158.34 -73.23 158.95 C-64.19 166.81 -59.54 177.8 -56.71 189.15 C-56.38 201.03 -56.05 212.91 -55.71 225.15 C28.77 225.15 113.25 225.15 200.29 225.15 C200.62 213.27 200.95 201.39 201.29 189.15 C204.45 178.91 206.43 173.25 212.29 165.15 C213.06 164.07 213.82 163 214.61 161.9 C221.84 154.5 230.79 149.93 240.29 146.15 C240.83 111.02 238.04 81.23 215.29 53.15 C214.76 52.44 214.22 51.74 213.66 51.01 C198.63 32.35 173.66 20.51 150.29 17.15 C141.58 16.3 132.93 16 124.19 16 C122.95 16 121.71 16 120.43 15.99 C117.07 15.98 113.71 15.98 110.35 15.98 C108.24 15.98 106.13 15.98 104.02 15.97 C96.62 15.97 89.22 15.96 81.82 15.96 C74.97 15.96 68.13 15.95 61.29 15.94 C55.37 15.92 49.45 15.92 43.53 15.92 C40.01 15.92 36.5 15.92 32.98 15.91 C5.18 15.47 5.18 15.47 -21.96 20.77 Z M-140.08 171.77 C-148.77 181.16 -151.21 191.7 -150.98 204.03 C-150.48 214.72 -145.22 222.88 -137.64 230.12 C-132.14 234.75 -126.48 236.98 -119.71 239.15 C-116.7 240.24 -114.98 240.87 -112.71 243.15 C-112.45 245.2 -112.45 245.2 -112.45 247.79 C-112.44 249.26 -112.44 249.26 -112.43 250.75 C-112.43 252.37 -112.43 252.37 -112.43 254.02 C-112.43 255.15 -112.42 256.28 -112.42 257.45 C-112.41 259.91 -112.4 262.38 -112.4 264.84 C-112.4 268.74 -112.38 272.64 -112.36 276.54 C-112.31 286.23 -112.28 295.92 -112.26 305.62 C-112.24 313.79 -112.21 321.97 -112.16 330.15 C-112.15 332.74 -112.15 335.32 -112.15 337.91 C-112.15 341.52 -112.13 345.14 -112.11 348.76 C-112.11 349.83 -112.12 350.9 -112.12 352 C-112.07 357.36 -112.02 361.67 -108.71 366.15 C-104.93 368.07 -101.81 368.4 -97.61 368.4 C-96.38 368.41 -95.14 368.41 -93.88 368.42 C-92.51 368.42 -91.15 368.41 -89.78 368.41 C-88.33 368.41 -86.88 368.41 -85.43 368.42 C-81.43 368.43 -77.44 368.43 -73.45 368.42 C-69.15 368.42 -64.85 368.43 -60.54 368.44 C-52.11 368.45 -43.68 368.45 -35.25 368.45 C-28.4 368.45 -21.55 368.45 -14.7 368.45 C-13.72 368.45 -12.75 368.45 -11.74 368.46 C-9.76 368.46 -7.78 368.46 -5.8 368.46 C12.77 368.47 31.34 368.47 49.91 368.46 C66.91 368.46 83.9 368.47 100.9 368.49 C118.34 368.51 135.79 368.51 153.23 368.51 C163.03 368.51 172.83 368.51 182.62 368.53 C190.96 368.54 199.3 368.54 207.64 368.53 C211.9 368.52 216.15 368.52 220.41 368.53 C224.31 368.54 228.2 368.54 232.1 368.53 C233.51 368.52 234.92 368.53 236.33 368.53 C238.24 368.54 240.16 368.53 242.07 368.52 C243.14 368.52 244.2 368.52 245.3 368.52 C248.84 368.08 251.25 366.98 254.29 365.15 C256.21 361.81 256.55 358.93 256.55 355.12 C256.56 353.64 256.56 353.64 256.57 352.13 C256.57 351.06 256.57 349.99 256.57 348.89 C256.57 347.75 256.58 346.61 256.58 345.44 C256.59 342.97 256.6 340.51 256.6 338.04 C256.6 334.14 256.62 330.24 256.64 326.34 C256.69 316.66 256.72 306.98 256.74 297.3 C256.76 289.11 256.79 280.93 256.84 272.74 C256.85 270.15 256.85 267.57 256.85 264.98 C256.85 261.37 256.87 257.76 256.89 254.15 C256.89 253.07 256.88 252 256.88 250.89 C256.89 249.91 256.9 248.93 256.91 247.92 C256.91 247.06 256.91 246.21 256.92 245.33 C257.38 242.64 258.15 241.79 260.29 240.15 C263.11 239.19 263.11 239.19 266.42 238.33 C277.71 235 285.77 228.6 291.9 218.5 C296.78 208.5 297.14 196.63 293.67 186.08 C289.23 175.82 281.27 167.09 270.77 162.93 C259.8 159.45 249.68 159.45 239.11 164.27 C228.89 169.9 221.96 177.79 217.98 188.77 C216.52 195.95 216.15 202.88 216.14 210.19 C216.13 211.16 216.13 212.13 216.12 213.13 C216.11 215.23 216.1 217.32 216.1 219.42 C216.08 222.74 216.06 226.05 216.04 229.37 C215.98 238.79 215.93 248.21 215.89 257.64 C215.87 263.41 215.84 269.18 215.79 274.96 C215.78 277.16 215.77 279.36 215.77 281.55 C215.76 284.62 215.74 287.69 215.71 290.75 C215.71 291.67 215.72 292.58 215.72 293.52 C215.71 294.35 215.7 295.18 215.69 296.04 C215.68 296.77 215.68 297.49 215.68 298.24 C215.17 300.77 214.31 301.55 212.29 303.15 C210.13 303.52 210.13 303.52 207.56 303.52 C206.09 303.54 206.09 303.54 204.59 303.55 C203.51 303.54 202.44 303.54 201.32 303.53 C200.18 303.53 199.04 303.54 197.86 303.54 C194.68 303.55 191.5 303.55 188.32 303.54 C184.89 303.53 181.46 303.54 178.04 303.55 C171.32 303.56 164.6 303.56 157.89 303.55 C152.43 303.55 146.97 303.55 141.52 303.55 C140.74 303.55 139.96 303.55 139.16 303.55 C137.59 303.55 136.01 303.55 134.44 303.55 C119.65 303.56 104.86 303.55 90.07 303.54 C77.38 303.52 64.68 303.52 51.98 303.54 C37.25 303.55 22.52 303.56 7.78 303.55 C6.21 303.55 4.64 303.55 3.07 303.55 C1.91 303.55 1.91 303.55 0.73 303.55 C-4.72 303.54 -10.17 303.55 -15.63 303.56 C-22.27 303.56 -28.91 303.56 -35.55 303.55 C-38.94 303.54 -42.33 303.54 -45.72 303.55 C-49.39 303.55 -53.06 303.54 -56.74 303.53 C-58.35 303.54 -58.35 303.54 -60 303.55 C-60.98 303.54 -61.96 303.53 -62.97 303.52 C-63.82 303.52 -64.67 303.52 -65.54 303.52 C-68.2 303.06 -69.08 302.26 -70.71 300.15 C-71.08 298.25 -71.08 298.25 -71.09 296.07 C-71.1 295.24 -71.11 294.41 -71.12 293.56 C-71.12 292.66 -71.11 291.75 -71.11 290.82 C-71.12 289.38 -71.12 289.38 -71.13 287.92 C-71.15 284.75 -71.15 281.57 -71.15 278.4 C-71.16 276.19 -71.17 273.98 -71.19 271.77 C-71.22 265.94 -71.24 260.11 -71.26 254.28 C-71.28 244.99 -71.32 235.69 -71.38 226.39 C-71.4 223.15 -71.4 219.91 -71.4 216.68 C-71.47 198.74 -72.17 184.04 -85.13 170.41 C-101.22 156.25 -124.52 157.55 -140.08 171.77 Z M-53.71 243.15 C-59.28 257.09 -55.71 273.13 -55.71 288.15 C28.77 288.15 113.25 288.15 200.29 288.15 C202.23 264.34 202.23 264.34 197.29 242.15 C192.93 239.3 187.66 239.87 182.62 239.89 C181.64 239.88 180.66 239.88 179.65 239.87 C176.37 239.86 173.08 239.87 169.79 239.87 C167.44 239.87 165.08 239.86 162.72 239.86 C156.32 239.84 149.92 239.84 143.52 239.85 C139.52 239.85 135.53 239.84 131.53 239.84 C130.87 239.84 130.2 239.84 129.52 239.84 C128.17 239.84 126.82 239.84 125.47 239.84 C112.83 239.82 100.19 239.83 87.55 239.83 C75.98 239.84 64.42 239.83 52.85 239.81 C40.98 239.79 29.1 239.78 17.22 239.78 C10.56 239.79 3.89 239.78 -2.78 239.77 C-9.05 239.76 -15.31 239.76 -21.58 239.77 C-23.88 239.77 -26.19 239.77 -28.49 239.76 C-31.63 239.75 -34.77 239.76 -37.91 239.77 C-39.28 239.76 -39.28 239.76 -40.67 239.75 C-45.71 239.79 -49.46 240.13 -53.71 243.15 Z M-87.71 384.15 C-87.71 397.35 -87.71 410.55 -87.71 424.15 C-84.41 424.15 -81.11 424.15 -77.71 424.15 C-74.08 410.95 -70.45 397.75 -66.71 384.15 C-73.64 384.15 -80.57 384.15 -87.71 384.15 Z M211.29 384.15 C214.92 397.35 218.55 410.55 222.29 424.15 C225.59 424.15 228.89 424.15 232.29 424.15 C232.29 410.95 232.29 397.75 232.29 384.15 C225.36 384.15 218.43 384.15 211.29 384.15 Z " fill="#000000" transform="translate(183.7054901123047,55.85282897949219)"/>
</svg>
