<?xml version="1.0" standalone="no"?>
<!DOCTYPE svg PUBLIC "-//W3C//DTD SVG 20010904//ENhttp://www.w3.org/TR/2001/REC-SVG-20010904/DTD/svg10.dtd">
<svg version="1.0" xmlns="http://www.w3.org/2000/svg"
 width="2000.000000pt" height="2000.000000pt" viewBox="0 0 2000.000000 2000.000000"
 preserveAspectRatio="xMidYMid meet">
<metadata>
Created by potrace 1.16, written by Peter Selinger 2001-2019
</metadata>
<g transform="translate(0.000000,2000.000000) scale(0.100000,-0.100000)"
fill="#000000" stroke="none">
<path d="M10685 16317 c-53 -25 -129 -100 -145 -143 -6 -14 -10 -47 -10 -73 0
-87 78 -176 261 -298 l96 -64 16 -77 c56 -270 39 -655 -37 -811 -36 -76 -79
-124 -138 -156 -46 -26 -65 -30 -154 -33 -114 -5 -176 8 -319 65 -155 61 -381
201 -460 282 l-29 31 23 17 c74 51 398 339 527 467 163 162 214 233 214 299 0
99 -98 114 -294 47 -331 -114 -569 -271 -652 -430 -25 -48 -29 -66 -29 -140 0
-84 12 -120 82 -251 2 -3 -29 -31 -69 -60 -40 -30 -100 -75 -133 -100 -33 -25
-105 -79 -160 -121 -55 -41 -133 -96 -172 -123 -40 -26 -75 -56 -79 -67 -6
-21 11 -48 32 -48 27 0 273 172 624 438 14 10 26 4 81 -44 76 -66 238 -169
364 -232 179 -89 357 -132 491 -117 88 9 209 70 256 128 83 101 108 172 134
367 17 134 15 385 -6 524 -6 38 -8 71 -6 74 9 8 486 -248 901 -483 105 -59
321 -181 480 -270 160 -89 407 -232 551 -317 528 -316 807 -450 1124 -540 l45
-13 6 -70 c4 -38 10 -416 13 -840 4 -423 14 -961 21 -1195 23 -742 -16 -1920
-80 -2364 -14 -95 -29 -184 -33 -197 -9 -23 -12 -23 -158 -25 -174 -2 -259
-21 -391 -84 -199 -97 -302 -292 -218 -411 63 -89 189 -129 320 -102 90 19
142 42 222 99 86 61 164 158 224 279 28 55 54 104 58 108 12 12 166 -40 264
-89 148 -74 298 -184 408 -300 47 -50 87 -104 77 -104 -2 0 -37 -6 -78 -14
-90 -17 -502 -51 -800 -66 -437 -21 -725 -10 -1006 41 -67 12 -129 19 -139 16
-25 -10 -16 -59 15 -74 14 -6 106 -24 205 -38 152 -23 225 -28 466 -32 454 -9
1028 28 1314 83 138 27 152 51 85 152 -81 121 -344 335 -505 411 -66 31 -237
91 -261 91 -25 0 -25 23 1 164 49 265 73 676 95 1626 6 262 6 498 0 640 -5
124 -14 592 -19 1040 -6 448 -13 910 -16 1026 -6 234 -8 224 59 224 138 0 266
119 266 248 0 63 -17 106 -59 155 -127 144 -317 22 -337 -216 -4 -41 -10 -81
-14 -87 -12 -20 -296 82 -494 178 -220 107 -410 212 -706 392 -124 76 -302
179 -395 230 -94 51 -343 190 -555 310 -212 119 -477 265 -590 324 -222 117
-385 211 -394 225 -3 5 14 49 39 97 77 150 83 250 22 341 -46 68 -108 97 -212
101 -68 2 -88 -1 -130 -21z m216 -77 c75 -39 102 -119 74 -217 -23 -81 -74
-173 -95 -173 -39 0 -212 137 -246 195 -30 53 -30 81 1 127 53 78 182 111 266
68z m-458 -416 c3 -4 -3 -25 -14 -47 -39 -75 -273 -301 -591 -570 l-127 -107
-21 29 c-57 81 -71 201 -32 276 43 84 175 192 331 270 215 107 426 176 454
149z m3931 -1425 c58 -45 69 -105 35 -177 -30 -61 -81 -92 -155 -95 l-59 -2 2
65 c2 119 64 230 127 230 13 0 35 -9 50 -21z m-416 -5135 l30 -6 -28 -64
c-124 -276 -375 -423 -574 -336 -81 36 -95 105 -41 198 71 122 276 212 481
213 56 1 115 -2 132 -5z"/>
<path d="M9917 14568 c-97 -180 -227 -449 -227 -472 0 -13 7 -29 15 -36 21
-18 57 8 80 57 10 21 67 139 127 263 114 236 124 270 74 270 -20 0 -32 -15
-69 -82z"/>
<path d="M6513 14551 c-111 -75 -187 -143 -262 -234 -169 -208 -291 -456 -361
-739 -17 -68 -33 -130 -37 -138 -3 -8 -18 48 -34 126 -38 189 -79 315 -150
459 -78 158 -170 286 -300 417 -161 162 -189 160 -189 -16 0 -217 38 -488 92
-656 73 -227 223 -477 477 -790 149 -184 191 -265 209 -394 6 -46 5 -71 -2
-80 -10 -12 -106 -36 -141 -36 -7 0 -32 30 -56 68 -58 89 -207 239 -294 295
-204 130 -365 183 -675 223 -178 22 -586 16 -625 -10 -40 -26 -33 -64 31 -157
129 -190 317 -386 464 -484 155 -104 304 -162 538 -210 233 -49 420 -42 647
24 55 17 103 27 106 23 7 -8 -5 -128 -24 -242 l-12 -75 -65 -7 c-198 -20 -328
-86 -345 -175 -10 -53 28 -121 84 -152 66 -36 183 -42 245 -12 59 29 102 88
129 180 l22 74 77 -6 c96 -8 239 -42 300 -73 115 -58 131 -152 75 -444 -26
-134 -2 -123 -202 -96 -163 22 -483 36 -637 29 -68 -4 -118 -2 -118 3 0 5 -9
77 -19 159 -11 83 -22 183 -26 223 -8 81 -24 108 -56 92 -15 -9 -19 -21 -19
-63 0 -50 24 -301 36 -382 l6 -41 -111 -12 c-337 -38 -611 -168 -686 -328 -50
-106 -30 -190 63 -261 85 -65 166 -79 647 -113 319 -22 400 -37 450 -85 19
-18 35 -37 35 -42 0 -6 -64 -13 -152 -17 -178 -8 -267 -24 -355 -65 -168 -79
-287 -219 -433 -511 -120 -239 -454 -1019 -448 -1047 5 -27 35 -40 52 -23 9 8
81 166 161 350 235 538 245 559 310 690 149 297 280 437 465 495 70 22 414 35
433 16 17 -17 13 -358 -7 -621 -10 -123 -20 -395 -23 -634 -6 -399 -5 -420 12
-433 24 -17 30 -16 49 3 14 13 16 50 16 242 1 288 15 672 36 967 10 148 14
275 10 357 l-7 126 78 7 c313 26 608 69 723 107 184 59 311 153 363 267 33 71
29 161 -9 230 -61 112 -193 182 -465 246 l-115 27 23 116 c12 65 26 165 29
224 9 145 -3 186 -76 259 -49 49 -67 60 -137 82 -83 27 -218 54 -288 59 -37 3
-40 5 -39 33 1 41 35 329 40 334 8 9 144 41 199 47 l60 6 32 -44 c153 -214
407 -366 704 -423 241 -45 697 -39 777 11 30 20 28 43 -10 95 -82 114 -250
249 -413 331 -289 147 -662 202 -879 130 -43 -14 -51 -21 -54 -45 -5 -39 15
-43 124 -22 111 21 292 16 414 -10 252 -55 516 -190 658 -336 60 -61 75 -89
50 -89 -7 0 -69 -5 -138 -10 -296 -24 -627 29 -824 130 -147 75 -279 189 -363
313 -32 47 -33 47 -88 47 -31 0 -91 -7 -133 -16 -94 -21 -114 -22 -119 -9 -11
32 28 48 267 106 536 130 781 221 1010 375 183 122 340 280 451 455 35 55 92
144 127 197 34 53 62 101 62 107 0 7 -8 20 -19 29 -18 16 -25 16 -137 -3 -66
-12 -211 -32 -324 -46 -335 -42 -492 -81 -665 -165 -206 -100 -448 -315 -605
-540 -33 -47 -65 -93 -73 -104 -12 -17 -19 -10 -81 90 l-68 109 18 35 c10 19
70 85 134 145 304 292 371 369 446 518 50 98 100 256 120 372 26 161 8 460
-32 523 -24 37 -63 28 -161 -37z m111 -78 c27 -165 15 -385 -30 -541 -65 -223
-138 -330 -413 -602 -205 -203 -281 -292 -281 -330 0 -9 15 -41 33 -71 19 -30
61 -100 96 -156 35 -58 70 -105 82 -108 29 -9 48 11 133 139 201 305 468 524
756 620 138 46 255 69 545 106 132 17 248 33 258 36 9 3 17 1 17 -3 0 -16
-158 -262 -209 -326 -55 -68 -158 -171 -236 -234 -156 -126 -358 -225 -630
-310 -192 -59 -638 -173 -681 -173 -7 0 -16 16 -19 38 -18 118 -29 155 -64
227 -22 44 -77 127 -123 185 -328 417 -465 645 -527 876 -41 155 -88 574 -64
574 21 0 182 -180 239 -266 141 -215 207 -415 269 -814 27 -171 42 -220 69
-220 31 0 47 40 71 181 53 298 96 442 196 644 77 156 170 293 269 394 65 67
202 171 225 171 7 0 15 -17 19 -37z m-1769 -1503 c249 -36 470 -125 631 -254
82 -66 157 -151 234 -265 l43 -64 76 6 c42 4 86 10 99 13 20 6 22 3 22 -29 0
-35 -1 -36 -62 -56 -267 -86 -460 -97 -723 -40 -297 64 -489 170 -686 377 -92
97 -249 293 -249 312 0 5 33 11 73 13 115 7 466 -1 542 -13z m1039 -1139 c11
-18 -26 -114 -57 -147 -53 -58 -173 -60 -229 -4 -35 36 -35 45 1 79 53 50 266
104 285 72z m196 -682 c112 -10 291 -37 299 -44 7 -8 -33 -146 -58 -198 -16
-31 -40 -61 -60 -74 -32 -22 -43 -23 -235 -23 -305 0 -445 23 -488 81 -12 15
-25 61 -33 120 -8 51 -17 106 -20 122 l-4 27 242 0 c133 0 294 -5 357 -11z
m-676 -21 c2 -13 11 -70 20 -127 21 -135 46 -180 118 -214 29 -13 69 -27 88
-31 104 -18 246 -27 418 -27 190 0 194 1 242 27 74 40 120 116 156 262 10 39
22 72 27 72 4 0 72 -16 150 -36 281 -70 391 -151 389 -284 -2 -151 -191 -274
-512 -334 -142 -26 -419 -56 -521 -56 l-97 0 -13 32 c-20 48 -67 97 -120 123
-58 30 -126 41 -379 60 -385 29 -456 36 -523 50 -81 17 -152 50 -178 84 -41
52 -11 151 67 220 48 42 174 107 264 136 64 21 296 63 357 64 37 1 43 -2 47
-21z"/>
<path d="M10426 14487 c-24 -18 -56 -216 -72 -434 -7 -108 0 -133 36 -133 30
0 38 22 49 145 18 198 30 317 37 366 6 40 4 48 -13 58 -15 7 -25 7 -37 -2z"/>
<path d="M9810 13339 c-274 -19 -430 -50 -592 -118 -370 -155 -572 -523 -519
-946 18 -135 59 -300 136 -535 66 -201 108 -371 121 -487 8 -76 24 -103 51
-87 15 10 18 25 17 105 -1 126 -23 222 -110 494 -84 261 -119 406 -133 550
-20 221 30 422 142 570 139 183 298 276 567 330 398 81 1254 67 1990 -31 486
-65 775 -191 964 -420 115 -139 166 -282 166 -464 0 -134 -20 -214 -95 -385
-78 -176 -139 -350 -165 -470 -17 -81 -49 -338 -50 -406 0 -14 -6 -15 -47 -6
-77 16 -365 13 -468 -6 -197 -36 -424 -131 -582 -242 -225 -159 -384 -381
-478 -665 -20 -63 -41 -119 -46 -124 -4 -5 -75 5 -166 23 -474 93 -881 111
-1265 55 l-37 -6 23 59 c47 114 59 181 60 318 0 159 -23 255 -90 369 -79 135
-192 225 -330 261 -82 22 -319 22 -450 0 -216 -37 -463 -133 -653 -255 -60
-39 -100 -56 -149 -66 -180 -38 -307 -154 -341 -312 -15 -73 -14 -213 4 -296
17 -80 38 -138 94 -259 61 -133 81 -207 92 -352 22 -295 61 -485 174 -856 107
-350 121 -437 90 -582 -8 -37 -68 -204 -134 -370 -138 -350 -161 -419 -161
-494 0 -66 29 -103 81 -103 73 0 162 133 369 550 51 102 93 186 94 187 2 2 43
-11 92 -27 525 -179 1110 -290 1641 -312 320 -14 467 -5 766 42 109 18 201 29
204 26 7 -7 37 -302 53 -526 19 -267 42 -356 103 -390 24 -13 30 -13 55 0 67
37 91 180 99 577 l5 272 -25 43 c-28 49 -78 81 -152 98 -79 19 -75 16 -64 48
13 37 66 91 161 164 126 96 217 223 288 403 40 100 215 668 322 1040 44 154
85 285 91 292 7 6 66 30 132 51 218 72 406 160 564 264 41 26 76 46 79 43 3
-2 -56 -186 -131 -407 -146 -432 -179 -536 -227 -723 -62 -240 -91 -404 -97
-545 -5 -121 -2 -152 26 -305 55 -306 73 -485 55 -552 -9 -33 -41 -28 -64 10
-28 45 -46 107 -85 301 -39 191 -61 242 -118 269 -55 27 -101 15 -257 -66 -74
-40 -211 -110 -305 -157 -130 -65 -170 -89 -170 -104 0 -39 28 -41 111 -6 98
40 308 142 433 209 106 58 151 65 175 29 8 -13 31 -103 51 -201 54 -266 86
-343 158 -382 29 -15 43 -17 74 -9 103 25 110 214 26 654 -20 105 -26 167 -26
275 0 128 3 157 42 330 64 291 118 473 303 1023 162 483 173 510 218 567 118
150 162 283 140 422 -23 145 -108 262 -245 338 -104 57 -104 57 -99 102 2 21
9 92 15 158 22 239 57 366 178 643 97 224 116 295 115 452 -1 231 -55 367
-222 558 -143 163 -421 308 -705 366 -240 50 -678 101 -997 116 -238 11 -793
11 -960 -1z m-979 -2343 c163 -35 271 -133 340 -310 29 -72 32 -95 36 -211 4
-94 1 -150 -11 -203 -17 -81 -59 -183 -86 -207 -9 -8 -79 -36 -155 -60 -285
-93 -547 -249 -627 -374 -64 -101 -17 -191 100 -191 79 1 283 102 434 216 81
61 218 195 289 283 35 44 35 44 130 57 304 42 614 37 964 -15 192 -29 404 -67
411 -74 2 -2 -19 -102 -45 -223 -148 -666 -230 -896 -373 -1049 -167 -178
-325 -223 -758 -212 -298 7 -619 53 -820 118 -217 70 -384 210 -449 377 -51
128 -80 434 -81 850 -1 173 1 198 22 264 19 60 23 95 23 193 -1 106 -4 128
-28 190 -54 138 -136 232 -254 293 -40 20 -73 39 -73 42 0 8 158 96 223 124
138 60 274 96 487 129 62 10 241 5 301 -7z m3434 -51 c90 -19 199 -73 264
-131 107 -97 151 -264 102 -395 -72 -190 -253 -372 -501 -503 -136 -71 -322
-151 -412 -176 l-71 -19 6 32 c4 18 18 86 31 151 60 287 39 465 -70 585 -127
141 -380 139 -532 -3 -119 -111 -186 -330 -163 -526 23 -182 93 -272 266 -340
54 -22 74 -24 198 -22 87 1 137 -2 137 -9 0 -36 -320 -1096 -376 -1247 -78
-210 -145 -300 -327 -442 -67 -53 -115 -115 -132 -174 l-12 -41 -69 -12 c-325
-54 -420 -63 -679 -63 -305 0 -518 17 -814 65 -364 60 -728 147 -1029 246
-120 40 -124 41 -143 23 -12 -10 -83 -143 -160 -295 -136 -270 -228 -429 -249
-429 -31 0 3 111 141 456 138 348 159 421 159 546 0 109 -17 196 -82 408 -143
467 -168 587 -197 944 -12 142 -31 206 -119 406 -133 302 -101 552 84 650 35
19 39 7 10 -37 -85 -128 -99 -349 -33 -508 28 -69 99 -167 150 -209 24 -20 69
-47 101 -62 51 -23 67 -26 136 -22 57 3 87 10 113 27 20 12 41 20 45 17 5 -3
10 -81 11 -173 2 -200 17 -472 31 -557 29 -182 82 -310 171 -409 190 -213 570
-327 1192 -357 398 -18 617 29 788 171 118 99 207 244 283 467 35 102 131 479
201 792 126 561 291 814 671 1029 257 145 605 203 879 146z m-4421 -308 c160
-73 270 -277 252 -465 -8 -75 -46 -182 -83 -230 -31 -41 -94 -71 -148 -72 -62
0 -152 48 -209 111 -163 180 -164 470 -2 644 43 46 47 48 89 43 24 -3 70 -17
101 -31z m3645 -153 c155 -78 184 -277 95 -659 -15 -60 -31 -115 -38 -122 -18
-19 -186 -33 -258 -22 -75 12 -162 50 -201 87 -16 15 -41 50 -55 77 -22 43
-27 66 -30 157 -5 121 12 218 53 307 65 140 157 200 306 201 62 0 84 -5 128
-26z m-2491 -595 c-119 -142 -377 -316 -525 -354 -220 -57 -28 153 270 295
103 50 259 109 285 110 7 0 -6 -23 -30 -51z m1861 -2318 c43 -22 56 -36 64
-69 15 -61 -28 -700 -48 -721 -21 -20 -37 87 -60 389 -9 113 -20 243 -25 290
-14 122 -13 130 10 130 12 0 38 -9 59 -19z"/>
<path d="M6646 10264 c-9 -9 -14 -25 -11 -37 97 -415 375 -1448 397 -1474 15
-19 46 -16 57 6 11 20 -2 74 -147 601 -39 140 -100 370 -137 510 -36 140 -75
285 -86 322 -22 75 -46 99 -73 72z"/>
<path d="M6700 6110 l0 -450 65 0 65 0 0 180 0 180 228 2 227 3 0 55 0 55
-227 3 -228 2 0 155 0 155 255 0 255 0 0 55 0 55 -320 0 -320 0 0 -450z"/>
<path d="M7512 6258 c6 -332 14 -382 73 -468 112 -162 420 -189 578 -50 100
88 117 163 117 538 l0 282 -65 0 -65 0 0 -293 c0 -313 -5 -354 -50 -418 -13
-18 -46 -42 -77 -56 -47 -22 -65 -25 -143 -21 -79 3 -93 6 -132 33 -92 66
-107 135 -108 508 l0 247 -66 0 -66 0 4 -302z"/>
<path d="M8540 6110 l0 -450 65 0 65 0 0 135 0 135 120 2 c66 1 130 2 142 2
16 1 43 -30 117 -136 l96 -138 68 0 c37 0 67 3 67 6 0 3 -43 66 -95 140 -53
73 -98 140 -100 146 -3 8 14 23 41 37 101 54 150 150 142 281 -8 137 -81 228
-214 270 -58 18 -93 20 -290 20 l-224 0 0 -450z m495 313 c77 -40 105 -88 105
-177 0 -80 -33 -134 -102 -170 -54 -27 -62 -28 -209 -30 l-154 -1 -3 204 -2
203 162 -4 c142 -3 168 -6 203 -25z"/>
<path d="M9480 6110 l0 -450 65 0 65 0 0 336 0 336 270 -336 271 -336 54 0 55
0 0 450 0 450 -65 0 -65 0 -2 -332 -3 -333 -268 333 -268 332 -54 0 -55 0 0
-450z"/>
<path d="M10530 6110 l0 -450 65 0 65 0 0 450 0 450 -65 0 -65 0 0 -450z"/>
<path d="M10800 6505 l0 -55 155 0 155 0 0 -395 0 -395 65 0 65 0 0 395 0 394
153 3 152 3 3 53 3 52 -375 0 -376 0 0 -55z"/>
<path d="M11660 6288 c0 -150 5 -300 10 -333 13 -82 62 -176 112 -220 70 -59
136 -79 263 -79 127 0 193 20 263 79 51 45 98 138 112 225 5 36 10 185 10 333
l0 267 -64 0 -65 0 -3 -307 c-3 -289 -4 -311 -24 -354 -42 -90 -112 -130 -228
-130 -91 0 -146 21 -189 72 -57 66 -60 85 -64 417 l-5 302 -64 0 -64 0 0 -272z"/>
<path d="M12690 6110 l0 -450 65 0 65 0 0 135 0 135 109 0 c60 0 122 3 138 6
29 6 33 1 128 -135 l99 -141 69 0 69 0 -17 28 c-10 15 -56 80 -102 144 -45 64
-83 120 -83 125 0 4 23 20 50 35 113 63 167 214 125 354 -28 94 -97 160 -204
194 -55 18 -91 20 -287 20 l-224 0 0 -450z m457 325 c65 -19 101 -48 124 -99
37 -81 20 -175 -40 -229 -53 -48 -90 -57 -263 -64 l-148 -6 0 206 0 207 138 0
c94 0 155 -5 189 -15z"/>
<path d="M13630 6110 l0 -450 325 0 325 0 0 55 0 55 -260 0 -260 0 0 145 0
145 225 0 225 0 0 55 0 55 -225 0 -225 0 0 140 0 140 255 0 255 0 0 55 0 55
-320 0 -320 0 0 -450z"/>
</g>
</svg>
