<?xml version="1.0" standalone="no"?>
<!DOCTYPE svg PUBLIC "-//W3C//DTD SVG 20010904//EN"  >
<svg version="1.0" xmlns="http://www.w3.org/2000/svg"
 width="2000.000000pt" height="2000.000000pt" viewBox="0 0 2000.000000 2000.000000"
 preserveAspectRatio="xMidYMid meet">

<g transform="translate(0.000000,2000.000000) scale(0.100000,-0.100000)"
fill="#000000" stroke="none">
<path d="M10685 16317 c-53 -25 -129 -100 -145 -143 -6 -14 -10 -47 -10 -73 0
-87 78 -176 261 -298 l96 -64 16 -77 c56 -270 39 -655 -37 -811 -36 -76 -79
-124 -138 -156 -46 -26 -65 -30 -154 -33 -114 -5 -176 8 -319 65 -155 61 -381
201 -460 282 l-29 31 23 17 c74 51 398 339 527 467 163 162 214 233 214 299 0
99 -98 114 -294 47 -331 -114 -569 -271 -652 -430 -25 -48 -29 -66 -29 -140 0
-84 12 -120 82 -251 2 -3 -29 -31 -69 -60 -40 -30 -100 -75 -133 -100 -33 -25
-105 -79 -160 -121 -55 -41 -133 -96 -172 -123 -40 -26 -75 -56 -79 -67 -6
-21 11 -48 32 -48 27 0 273 172 624 438 14 10 26 4 81 -44 76 -66 238 -169
364 -232 179 -89 357 -132 491 -117 88 9 209 70 256 128 83 101 108 172 134
367 17 134 15 385 -6 524 -6 38 -8 71 -6 74 9 8 486 -248 901 -483 105 -59
321 -181 480 -270 160 -89 407 -232 551 -317 528 -316 807 -450 1124 -540 l45
-13 6 -70 c4 -38 10 -416 13 -840 4 -423 14 -961 21 -1195 23 -742 -16 -1920
-80 -2364 -14 -95 -29 -184 -33 -197 -9 -23 -12 -23 -158 -25 -174 -2 -259
-21 -391 -84 -199 -97 -302 -292 -218 -411 63 -89 189 -129 320 -102 90 19
142 42 222 99 86 61 164 158 224 279 28 55 54 104 58 108 12 12 166 -40 264
-89 148 -74 298 -184 408 -300 47 -50 87 -104 77 -104 -2 0 -37 -6 -78 -14
-90 -17 -502 -51 -800 -66 -437 -21 -725 -10 -1006 41 -67 12 -129 19 -139 16
-25 -10 -16 -59 15 -74 14 -6 106 -24 205 -38 152 -23 225 -28 466 -32 454 -9
1028 28 1314 83 138 27 152 51 85 152 -81 121 -344 335 -505 411 -66 31 -237
91 -261 91 -25 0 -25 23 1 164 49 265 73 676 95 1626 6 262 6 498 0 640 -5
124 -14 592 -19 1040 -6 448 -13 910 -16 1026 -6 234 -8 224 59 224 138 0 266
119 266 248 0 63 -17 106 -59 155 -127 144 -317 22 -337 -216 -4 -41 -10 -81
-14 -87 -12 -20 -296 82 -494 178 -220 107 -410 212 -706 392 -124 76 -302
179 -395 230 -94 51 -343 190 -555 310 -212 119 -477 265 -590 324 -222 117
-385 211 -394 225 -3 5 14 49 39 97 77 150 83 250 22 341 -46 68 -108 97 -212
101 -68 2 -88 -1 -130 -21z m216 -77 c75 -39 102 -119 74 -217 -23 -81 -74
-173 -95 -173 -39 0 -212 137 -246 195 -30 53 -30 81 1 127 53 78 182 111 266
68z m-458 -416 c3 -4 -3 -25 -14 -47 -39 -75 -273 -301 -591 -570 l-127 -107
-21 29 c-57 81 -71 201 -32 276 43 84 175 192 331 270 215 107 426 176 454
149z m3931 -1425 c58 -45 69 -105 35 -177 -30 -61 -81 -92 -155 -95 l-59 -2 2
65 c2 119 64 230 127 230 13 0 35 -9 50 -21z m-416 -5135 l30 -6 -28 -64
c-124 -276 -375 -423 -574 -336 -81 36 -95 105 -41 198 71 122 276 212 481
213 56 1 115 -2 132 -5z"/>
</g>
</svg>
