<?xml version="1.0" standalone="no"?>
<!DOCTYPE svg PUBLIC "-//W3C//DTD SVG 20010904//EN"
<svg version="1.0" xmlns="http://www.w3.org/2000/svg"
 width="50.000000pt" height="50.000000pt" viewBox="0 0 50.000000 50.000000"
 preserveAspectRatio="xMidYMid meet">

<g transform="translate(0.000000,50.000000) scale(0.100000,-0.100000)"
fill="#000000" stroke="none">
<path d="M170 390 l0 -100 -45 0 c-35 0 -52 -6 -70 -25 -14 -13 -25 -33 -25
-43 0 -11 -7 -25 -15 -32 -18 -15 -20 -46 -4 -56 17 -10 43 -76 40 -102 -4
-35 28 -41 53 -9 20 24 28 27 86 27 58 0 66 -3 86 -27 27 -34 59 -26 51 14
l-5 26 84 -7 84 -6 0 220 0 220 -160 0 -160 0 0 -100z m150 -20 c0 -96 -1
-100 -19 -90 -11 5 -40 10 -65 10 l-46 0 0 90 0 90 65 0 65 0 0 -100z m150
-95 l0 -195 -70 0 c-38 0 -70 4 -70 9 0 4 9 20 20 34 24 30 25 50 5 67 -12 10
-15 40 -15 146 l0 134 65 0 65 0 0 -195z m-168 -22 c24 -21 22 -42 -5 -75 -20
-23 -26 -25 -67 -19 -25 3 -65 4 -90 0 -40 -6 -47 -4 -67 20 -27 31 -28 49 -6
73 23 25 207 27 235 1z m-233 -99 c10 -22 16 -25 41 -19 39 9 111 9 150 0 25
-6 31 -3 41 19 13 27 33 34 44 15 4 -5 1 -18 -7 -27 -8 -9 -19 -29 -26 -44
l-12 -28 -115 0 -115 0 -12 28 c-7 15 -18 35 -26 44 -8 9 -11 22 -7 27 11 19
31 12 44 -15z m25 -119 c-6 -16 -24 -21 -24 -7 0 11 11 22 21 22 5 0 6 -7 3
-15z m214 -3 c6 -18 -15 -14 -22 4 -4 10 -1 14 6 12 6 -2 14 -10 16 -16z"/>
<path d="M370 265 c0 -14 5 -25 10 -25 6 0 10 11 10 25 0 14 -4 25 -10 25 -5
0 -10 -11 -10 -25z"/>
</g>
</svg>